<svg id="Layer_1" data-name="Layer 1" xmlns="http://www.w3.org/2000/svg" viewBox="0 0 1921 1080"><defs><style>.cls-1{fill:#f0232d;}.cls-2{fill:#150608;stroke:#150608;stroke-miterlimit:10;}.cls-3{fill:#fed3a2;}.cls-4{fill:none;}.cls-5{fill:#b1a701;}</style></defs><title>watermelon</title><rect class="cls-1" x="0.5" width="1920" height="1080"/><path class="cls-2" d="M251.28,695.36c-41.83,53.95-18.14,111.55,6.29,120.69,20.21,8.15,71.45-12.21,76.34-89.77-.45-13.68.08-51.29-14.35-75.9C301.5,653.35,268.54,673.44,251.28,695.36Z" transform="translate(0.5)"/><path class="cls-2" d="M611.12,795.7c18.61,61.06-20.31,103.82-44.28,103.82-20,.52-57.54-34.17-36.78-103.82,4.79-11.86,16.44-45,36.78-61.89C581.43,742.35,603.32,770.79,611.12,795.7Z" transform="translate(0.5)"/><path class="cls-2" d="M56,530.52c-28.84,13.1-46.67,32.75-56,51.86v55.3C15.28,651,64.37,651.61,106.71,591.25c6.81-11.78,27-43.42,28.19-70.3C118.72,515.92,81.5,519.16,56,530.52Z" transform="translate(0.5)"/><path class="cls-2" d="M802.29,800.74c-3.51,69.08,43.27,106.8,66,101.88,19.09-3.56,46.64-48.33,10.84-118.52-7.28-11.68-26-44.75-49.19-58.59C818.09,737.62,803.93,772.52,802.29,800.74Z" transform="translate(0.5)"/><path class="cls-2" d="M1199.25,763.7c26.41,68-9,121.15-33.91,123.67-20.71,2.69-63.7-33.13-50.23-115.16,3.6-14.09,11.85-53.35,31-74.8C1162.24,705.66,1188.27,736,1199.25,763.7Z" transform="translate(0.5)"/><path class="cls-2" d="M1379.82,740.35c16.57,76.89,80,103.67,103.84,91.18,20.24-9.85,37.69-67.58-23.07-133.41-11.59-10.55-42.29-41-72.25-48.94C1378.71,666.17,1373.27,708.88,1379.82,740.35Z" transform="translate(0.5)"/><path class="cls-2" d="M1671.45,556c56.58,51.23,48.34,117.49,26.26,131.5-18.1,12.23-75.07-1.11-100.92-84.11-3.24-14.85-13.93-55.42-6.08-84.45C1609.66,519.06,1648.19,535.2,1671.45,556Z" transform="translate(0.5)"/><path class="cls-2" d="M1855.37,423c64.07,47,66.75,114.7,47.29,130.72-15.84,13.88-74.13,5.18-113.11-76.54-5.61-14.75-22.76-54.85-19.75-84.86C1788.49,390.92,1829.07,404,1855.37,423Z" transform="translate(0.5)"/><path class="cls-3" d="M1920,920.33V716.12A1025.27,1025.27,0,0,1,1700,854c-69.93,32.25-160,64.11-329,90-73.1,11.2-231,32-516,26-324.87-6.86-491.08-12.08-676-100a1024.69,1024.69,0,0,1-179-109v319H1916.17Q1918.09,1000.17,1920,920.33Z" transform="translate(0.5)"/><path class="cls-4" d="M753,1131" transform="translate(0.5)"/><path class="cls-5" d="M1920,841.19C1764.31,973.32,1302.64,1069,756.53,1069,371.73,1069,53.81,952.93,0,801.56V1080H1920Z" transform="translate(0.5)"/><path class="cls-2" d="M361.31,403.38c-26.59,46.81-75.35,47.78-89.26,33.1-11.92-12-12.44-55.06,42.26-82.74,10-3.94,37.11-16.05,59.23-13.37C376.77,354.26,372,384.16,361.31,403.38Z" transform="translate(0.5)"/><path class="cls-2" d="M487,494.25c-24.41,46.68-2.24,87.55,15.87,91.32,15,3.57,49.26-18.7,45.37-78.56-1.62-10.38-4.8-39.17-17.32-56.07C518.44,455.58,497.08,475.24,487,494.25Z" transform="translate(0.5)"/><path class="cls-2" d="M762.74,544c9.49,52.73-22.14,86.53-39.8,85.09-14.77-.77-40-32.35-19.92-90,4.35-9.73,15.23-37.07,31.38-50.09C744.55,497.14,758.71,522.5,762.74,544Z" transform="translate(0.5)"/><path class="cls-2" d="M1013.37,511.93c30.19,46.1,7.49,90.93-12.73,96.72C983.88,613.9,944,594.22,945,531.49c1.23-11,3.19-41.28,16.36-60.15C975.68,474.89,1000.89,493.18,1013.37,511.93Z" transform="translate(0.5)"/><path class="cls-2" d="M1243.75,466.84c37.54,44.24,23.76,93.51,5.28,101.95-15.24,7.47-57.35-8.17-67.79-73.41-.81-11.55-4.42-43.25,4.87-64.43C1200.6,432.92,1228.28,448.87,1243.75,466.84Z" transform="translate(0.5)"/><path class="cls-2" d="M1434.94,373.32c42.41,32.13,39.4,79.15,24.31,90.47-12.33,9.79-53.39,4.28-75.33-52.2-2.94-10.2-12.28-37.93-8-58.82C1389.45,351.6,1417.52,360.32,1434.94,373.32Z" transform="translate(0.5)"/><path class="cls-2" d="M1554.47,274.36c18.26,47,64.09,53.42,79.33,41.19,13-9.89,19.73-50.35-27.8-82.54-8.89-4.84-32.65-19.28-53.89-19.26C1547,226.44,1547.15,255.08,1554.47,274.36Z" transform="translate(0.5)"/><path class="cls-2" d="M225.57,274.25c-32.16,38.39-77.64,28.47-88.24,11.5-9.18-14-2.83-54.86,52.42-68.91,10-1.5,37.05-6.94,57.19.51C247.74,231.2,238.6,258.45,225.57,274.25Z" transform="translate(0.5)"/><path class="cls-2" d="M1721.2,61c48.41,19.69,57.09,65.39,45.46,80.11-9.39,12.55-50,17.92-84.81-30.34-5.32-9-21-33-22-54.13C1672.39,52.08,1701.36,53.13,1721.2,61Z" transform="translate(0.5)"/><path class="cls-2" d="M128.7,139.21C92.14,177.92,46.32,172.16,37,157c-8.16-12.44,2.13-51.49,60.18-69.07,10.36-2.2,38.7-9.46,58.7-4C155.42,96.89,143.53,123.29,128.7,139.21Z" transform="translate(0.5)"/><path class="cls-2" d="M0,444.72c12.15-11.88,33.06-33.26,40-54.9-8.07-5.15-23.32-9.51-40-11.56Z" transform="translate(0.5)"/><path class="cls-2" d="M1920,250.29c-16.81-.53-38.5.25-54.67,7.45,2.75,16.72,22.31,48.56,43.87,66.26,3.58,2.91,7.19,5.53,10.8,7.91Z" transform="translate(0.5)"/></svg>